<?xml version="1.0" standalone="no"?>
<!DOCTYPE svg PUBLIC "-//W3C//DTD SVG 20010904//EN"
 "http://www.w3.org/TR/2001/REC-SVG-20010904/DTD/svg10.dtd">
<svg version="1.0" xmlns="http://www.w3.org/2000/svg"
 width="64.000000pt" height="64.000000pt" viewBox="0 0 64.000000 64.000000"
 preserveAspectRatio="xMidYMid meet">

<g transform="translate(0.000000,64.000000) scale(0.100000,-0.100000)"
fill="#000000" stroke="none">
<path d="M170 580 c0 -5 5 -10 11 -10 5 0 7 5 4 10 -3 6 -8 10 -11 10 -2 0 -4
-4 -4 -10z"/>
<path d="M440 580 c0 -5 5 -10 11 -10 5 0 7 5 4 10 -3 6 -8 10 -11 10 -2 0 -4
-4 -4 -10z"/>
<path d="M295 563 c-59 -16 -95 -71 -95 -150 0 -26 -7 -57 -16 -68 -58 -76
-24 -203 67 -250 70 -37 171 -8 219 62 34 49 35 134 2 180 -16 23 -22 45 -22
85 0 56 -24 109 -57 126 -25 13 -74 21 -98 15z m106 -41 c27 -24 33 -37 37
-87 3 -42 2 -56 -7 -51 -6 4 -11 15 -11 24 0 46 -22 93 -50 107 -41 21 -64 19
-99 -11 -25 -20 -31 -34 -31 -64 0 -21 -6 -43 -15 -50 -13 -11 -15 -7 -15 24
0 48 22 99 51 120 38 26 103 21 140 -12z m-18 -34 c9 -11 17 -32 17 -47 0 -26
-1 -26 -75 -26 -74 0 -75 0 -75 26 0 69 88 100 133 47z m13 -99 c56 -27 88
-77 88 -139 0 -120 -130 -198 -233 -139 -49 28 -73 63 -79 115 -6 56 2 85 35
125 51 60 117 73 189 38z"/>
<path d="M280 363 c-28 -10 -59 -46 -70 -79 -24 -73 35 -154 112 -154 117 0
169 129 83 208 -34 32 -81 41 -125 25z m99 -18 c16 -8 36 -31 46 -51 24 -50 8
-107 -38 -134 -78 -48 -166 -1 -167 89 0 36 6 49 34 77 38 38 77 44 125 19z"/>
<path d="M265 305 c-14 -13 -25 -34 -25 -47 1 -21 2 -20 14 7 15 34 32 51 61
58 18 4 17 5 -3 6 -13 0 -34 -10 -47 -24z"/>
<path d="M294 285 c-10 -24 16 -86 34 -83 17 3 37 62 28 84 -7 19 -55 18 -62
-1z m48 -25 c-5 -50 -13 -56 -28 -21 -15 37 -11 54 14 49 11 -3 16 -12 14 -28z"/>
<path d="M392 221 c-8 -18 -25 -34 -44 -40 -17 -6 -29 -13 -26 -16 19 -19 95
48 86 75 -1 5 -9 -3 -16 -19z"/>
<path d="M526 544 c-9 -8 -16 -19 -16 -24 0 -11 29 -40 40 -40 11 0 40 29 40
40 0 11 -29 40 -40 40 -5 0 -16 -7 -24 -16z m44 -24 c0 -13 -7 -20 -20 -20
-13 0 -20 7 -20 20 0 13 7 20 20 20 13 0 20 -7 20 -20z"/>
<path d="M85 470 c-3 -5 -1 -10 4 -10 6 0 11 5 11 10 0 6 -2 10 -4 10 -3 0 -8
-4 -11 -10z"/>
<path d="M550 400 c0 -5 5 -10 10 -10 6 0 10 5 10 10 0 6 -4 10 -10 10 -5 0
-10 -4 -10 -10z"/>
<path d="M85 260 c-3 -5 -1 -10 4 -10 6 0 11 5 11 10 0 6 -2 10 -4 10 -3 0 -8
-4 -11 -10z"/>
<path d="M70 150 c-11 -11 -20 -26 -20 -33 0 -24 31 -57 55 -57 50 0 73 60 37
93 -25 22 -48 21 -72 -3z m64 -6 c20 -19 20 -48 1 -64 -19 -16 -45 -9 -62 17
-13 19 -12 24 6 42 25 25 35 26 55 5z"/>
<path d="M200 59 c0 -5 5 -7 10 -4 6 3 10 8 10 11 0 2 -4 4 -10 4 -5 0 -10 -5
-10 -11z"/>
</g>
</svg>
