<svg id="fb8ebbfe-f1a3-4885-ad8e-0bbe48e0e4e4" data-name="Layer 1" xmlns="http://www.w3.org/2000/svg" viewBox="0 0 342.93 422.97"><defs><style>.b06c36d4-bf7a-4380-8915-3510c5f29e35{fill:#c91b73;}.bdb1f9e8-8823-4d22-a51c-318ad5ca3ee2{fill:#0e113c;}</style></defs><title>imeLOG</title><g id="ad2ef975-50fa-42ae-b3e4-1a7da6e11abf"><path class="b06c36d4-bf7a-4380-8915-3510c5f29e35" d="M396.44,513.8C342,569.7,294.92,617.48,277.64,611c-38.06-14.27,10.77-152.33-38.88-173.19a39,39,0,0,1-7.58-4.08c67.23-13.16,208.37-51.19,145.1-70.41a29.19,29.19,0,0,1-3.39-1.27c41.58-7.19,79.05-8.09,91.95,2.71C498.35,392.8,451.88,456.92,396.44,513.8Z" transform="translate(-133.21 -188.62)"/><path class="bdb1f9e8-8823-4d22-a51c-318ad5ca3ee2" d="M231.18,433.73c-10,2-18.29,3.36-24.1,4.08-121.32,15-70.82-75-7.2-139.29,51.43-52,139.3-134.37,147.6-103,7.3,27.65-17.15,147.26,25.41,166.49a29.19,29.19,0,0,0,3.39,1.27C439.55,382.54,298.41,420.57,231.18,433.73Z" transform="translate(-133.21 -188.62)"/></g></svg>